<svg id="Capa_1" enable-background="new 0 0 512 512" height="512" viewBox="0 0 512 512" width="512" xmlns="http://www.w3.org/2000/svg"><g><g><path d="m420.099 249.878h-328.198c-46.685 0-84.53-37.845-84.53-84.53 0-46.685 37.845-84.53 84.53-84.53h328.199c46.685 0 84.53 37.845 84.53 84.53 0 46.684-37.846 84.53-84.531 84.53z" fill="#f9f6f9"/></g><path d="m490.991 119.33c1.318 5.93 2.035 12.087 2.035 18.414 0 46.685-37.845 84.53-84.53 84.53h-328.198c-29.708 0-55.817-15.338-70.892-38.513 8.407 37.826 42.137 66.116 82.495 66.116h328.199c46.685 0 84.53-37.845 84.53-84.53 0-16.977-5.024-32.772-13.639-46.017z" fill="#f1eaf9"/><g><path d="m420.1 257.249h-328.199c-50.675 0-91.901-41.227-91.901-91.902s41.226-91.901 91.901-91.901h328.199c50.674 0 91.9 41.226 91.9 91.901s-41.227 91.902-91.9 91.902zm-328.199-169.062c-42.546 0-77.16 34.614-77.16 77.16s34.614 77.16 77.16 77.16h328.199c42.546 0 77.159-34.614 77.159-77.16s-34.613-77.16-77.159-77.16z" fill="#ddc8f1"/></g><g><g><path d="m422.189 173.092-35.955 26.243c-5.404 3.944-12.691-1.351-10.61-7.709l13.848-42.305c.932-2.847-.083-5.971-2.51-7.726l-36.069-26.086c-5.421-3.92-2.637-12.487 4.053-12.473l44.514.097c2.996.007 5.653-1.924 6.572-4.775l13.663-42.365c2.053-6.367 11.061-6.367 13.115 0l13.663 42.365c.92 2.851 3.576 4.782 6.572 4.775l44.514-.097c6.69-.015 9.473 8.553 4.053 12.473l-36.069 26.086c-2.428 1.756-3.442 4.879-2.51 7.726l13.848 42.305c2.081 6.358-5.206 11.653-10.61 7.709l-35.955-26.243c-2.423-1.766-5.707-1.766-8.127 0z" fill="#f6e266"/></g><g><g><path d="m497.558 103.037-21.528.047-33.476 24.21c-5.496 3.974-7.793 11.045-5.683 17.49l14.233 43.483 15.165 11.068c5.404 3.944 12.691-1.351 10.61-7.709l-13.848-42.305c-.932-2.847.083-5.97 2.51-7.726l36.069-26.086c5.421-3.919 2.637-12.487-4.052-12.472z" fill="#ecc32e"/></g></g></g><g><g><path d="m303.93 182.338-23.911 17.452c-3.593 2.623-8.44-.898-7.056-5.126l9.209-28.133c.62-1.894-.055-3.971-1.669-5.138l-23.987-17.347c-3.605-2.607-1.754-8.304 2.695-8.295l29.602.065c1.992.004 3.759-1.279 4.371-3.176l9.086-28.173c1.366-4.234 7.356-4.234 8.722 0l9.086 28.173c.612 1.896 2.378 3.18 4.371 3.176l29.602-.065c4.449-.01 6.3 5.688 2.695 8.295l-23.987 17.347c-1.614 1.168-2.289 3.245-1.669 5.138l9.209 28.133c1.384 4.228-3.462 7.749-7.056 5.126l-23.911-17.452c-1.609-1.175-3.793-1.175-5.402 0z" fill="#f6e266"/></g><g><g><path d="m354.051 135.75-14.316.031-22.262 16.1c-3.655 2.643-5.182 7.345-3.779 11.631l9.466 28.917 10.085 7.361c3.593 2.623 8.44-.898 7.056-5.126l-9.209-28.134c-.62-1.893.055-3.97 1.669-5.138l23.987-17.347c3.603-2.608 1.752-8.305-2.697-8.295z" fill="#ecc32e"/></g></g></g><g><g><path d="m205.547 186.616-18.337 13.384c-2.756 2.011-6.472-.689-5.411-3.931l7.062-21.575c.475-1.452-.042-3.045-1.28-3.94l-18.395-13.304c-2.765-1.999-1.345-6.369 2.067-6.361l22.702.05c1.528.003 2.883-.981 3.352-2.435l6.968-21.606c1.047-3.247 5.641-3.247 6.688 0l6.968 21.606c.469 1.454 1.824 2.439 3.352 2.435l22.702-.05c3.412-.007 4.831 4.362 2.067 6.361l-18.395 13.304c-1.238.895-1.756 2.488-1.28 3.94l7.062 21.575c1.061 3.242-2.655 5.943-5.411 3.931l-18.337-13.384c-1.235-.901-2.91-.901-4.144 0z" fill="#f6e266"/></g><g><g><path d="m243.984 150.888-10.979.024-17.073 12.347c-2.803 2.027-3.974 5.633-2.898 8.92l7.259 22.176 7.734 5.645c2.756 2.011 6.472-.689 5.411-3.931l-7.062-21.575c-.475-1.452.042-3.045 1.28-3.94l18.395-13.304c2.765-2 1.345-6.369-2.067-6.362z" fill="#ecc32e"/></g></g></g><g><g><path d="m123.461 189.026-15.198 11.093c-2.284 1.667-5.364-.571-4.485-3.258l5.853-17.882c.394-1.204-.035-2.524-1.061-3.266l-15.246-11.026c-2.291-1.657-1.115-5.278 1.713-5.272l18.815.041c1.266.003 2.389-.813 2.778-2.018l5.775-17.907c.868-2.691 4.675-2.691 5.543 0l5.775 17.907c.389 1.205 1.512 2.021 2.778 2.018l18.815-.041c2.828-.006 4.004 3.615 1.713 5.272l-15.246 11.026c-1.026.742-1.455 2.062-1.061 3.266l5.853 17.882c.88 2.687-2.201 4.925-4.485 3.258l-15.198-11.093c-1.02-.747-2.408-.747-3.431 0z" fill="#f6e266"/></g><g><g><path d="m155.318 159.414-9.1.02-14.15 10.233c-2.323 1.68-3.294 4.668-2.402 7.393l6.016 18.38 6.41 4.678c2.284 1.667 5.364-.571 4.485-3.258l-5.853-17.882c-.394-1.204.035-2.524 1.061-3.266l15.246-11.026c2.291-1.657 1.115-5.278-1.713-5.272z" fill="#ecc32e"/></g></g></g><g><g><path d="m59.459 192.302-10.93 7.978c-1.643 1.199-3.858-.411-3.225-2.343l4.21-12.86c.283-.866-.025-1.815-.763-2.349l-10.965-7.93c-1.648-1.192-.802-3.796 1.232-3.792l13.532.03c.911.002 1.718-.585 1.998-1.452l4.153-12.879c.624-1.935 3.363-1.935 3.987 0l4.153 12.879c.28.867 1.087 1.454 1.998 1.452l13.532-.03c2.034-.004 2.88 2.6 1.232 3.792l-10.965 7.93c-.738.534-1.046 1.483-.763 2.349l4.21 12.86c.633 1.933-1.583 3.542-3.225 2.343l-10.93-7.978c-.737-.537-1.736-.537-2.471 0z" fill="#f6e266"/></g></g><g><path d="m457.778 306.455c0-10.278-8.332-18.61-18.61-18.61-6.418 0-12.076 4.102-15.405 8.295-.228.288-.599.415-.953.319-.371-.1-.631-.424-.666-.808-.858-9.483-8.823-17.368-18.473-17.387-8.426-.017-15.51 5.58-17.812 13.251-.112.373-.446.634-.835.634-.389 0-.723-.26-.835-.634-2.299-7.66-9.366-13.251-17.776-13.251-7.669 0-14.241 4.645-17.088 11.27-.119.276-.525.195-.525-.106v-69.211c0-10.037-8.136-18.173-18.173-18.173-10.031 0-18.165 8.127-18.173 18.158l-.006 134.049-21.366-27.316c-9.667-12.361-27.523-14.545-39.884-4.878-3.747 3.043-4.943 7.769-2.186 11.295l35.94 45.957c2.169 2.773 4.045 5.763 5.598 8.923l8.55 17.393c4.12 8.382 10.463 15.472 18.336 20.497l13.229 8.444c3.598 2.296 5.775 6.269 5.775 10.537v8.413c0 3.99 3.235 7.225 7.225 7.225l93.138.041c3.99 0 7.225-3.235 7.225-7.225v-22.465c0-5.773 1.031-11.5 3.045-16.911l7.66-20.582c2.014-5.411 3.045-11.138 3.045-16.912l-.001-70.205c0-.01.001-.018.001-.027z" fill="#dfaca0"/></g><g><g><path d="m332.638 220.216v62.896c0 6.313 5.117 11.43 11.43 11.43 2.613 0 4.731-2.118 4.731-4.731v-69.595c0-10.037-8.136-18.173-18.173-18.173-2.907 0-5.644.7-8.08 1.913 5.976 2.977 10.092 9.13 10.092 16.26z" fill="#d59b8b"/></g><g><path d="m457.778 306.455c0-10.278-8.332-18.61-18.61-18.61-2.789 0-5.435.776-7.808 1.997 6.078 3.062 10.258 9.343 10.258 16.614 0 .009-.001.017-.001.026l.001 70.205c0 5.774-1.031 11.501-3.045 16.912l-7.66 20.582c-2.014 5.411-3.045 11.137-3.045 16.911v22.465c0 3.943-3.16 7.143-7.086 7.218l16.022.007c3.99 0 7.225-3.235 7.225-7.225v-22.465c0-5.773 1.031-11.5 3.045-16.911l7.66-20.582c2.014-5.411 3.045-11.138 3.045-16.912l-.001-70.205c-.001-.01 0-.018 0-.027z" fill="#d59b8b"/></g></g><g><g><path d="m278.368 339.649 19.102 24.276c4.923 6.257 14.977 2.775 14.977-5.186v-4.488l-21.366-27.316c-9.667-12.361-27.523-14.545-39.884-4.878-2.648 2.15-4.013 5.14-3.618 7.954 10.942-3.387 23.314.079 30.789 9.638z" fill="#d59b8b"/></g></g></g></svg>