<svg width="2468" height="573" viewBox="0 0 2468 573" fill="none" xmlns="http://www.w3.org/2000/svg">
<path d="M371.17 197.23C371.17 94.9004 287.92 11.6504 185.58 11.6504C83.24 11.6504 0 94.9004 0 197.23C0 234.44 11.02 269.12 29.95 298.2L29.5 298.08L185.59 519.7L328.69 315.27C355.22 283.17 371.17 242.03 371.17 197.23ZM185.58 70.6504C255.38 70.6504 312.16 127.44 312.16 197.23C312.16 267.02 255.37 323.81 185.58 323.81C115.79 323.81 59 267.02 59 197.23C59 127.44 115.79 70.6504 185.58 70.6504Z" fill="#065DAD"/>
<path d="M306.32 190.2H254.85C252.12 190.2 250.08 192.18 249.21 194.82C246.82 202.05 244.44 209.28 242.05 216.52C241.65 214.79 241.24 213.06 240.84 211.33C237.72 197.94 234.6 184.55 231.48 171.16C230.77 168.11 230.06 165.05 229.35 162C228.75 159.43 226.21 157.26 223.71 157.38C220.99 157.51 218.97 159.28 218.07 162C215.2 170.67 212.33 179.33 209.46 188C204.1 187.92 198.74 187.84 193.38 187.77C192.26 183.58 191.13 179.39 190.01 175.2C189.32 172.64 186.94 170.46 184.37 170.58C181.62 170.71 179.67 172.49 178.73 175.2C176.06 182.86 173.4 190.51 170.73 198.17C167.9 206.3 165.07 214.43 162.24 222.56C161.41 218.52 160.59 214.48 159.76 210.43C157.87 201.16 155.97 191.89 154.08 182.62C152.44 174.6 150.8 166.58 149.17 158.56C148.38 154.67 147.76 150.67 146.77 146.83C146.76 146.77 146.75 146.72 146.73 146.66C146.24 144.24 144.03 142.47 141.87 142.16C139.76 141.86 136.99 142.91 136.04 145.16C133.79 150.51 131.53 155.86 129.28 161.2C125.69 169.72 122.1 178.24 118.51 186.76C118.13 187.67 117.74 188.58 117.36 189.49H64.0501C60.9901 189.49 58.0601 192.38 58.2001 195.78C58.3401 199.19 60.7701 202.07 64.0501 202.07H121.09C122.98 202.07 125.32 200.91 126.14 198.96C128.39 193.61 130.65 188.26 132.9 182.92C134.98 177.99 137.06 173.05 139.14 168.12C140.12 172.94 141.11 177.75 142.09 182.57C143.98 191.84 145.88 201.11 147.77 210.38C149.41 218.4 151.05 226.42 152.68 234.44C153.47 238.33 154.09 242.33 155.08 246.17C155.09 246.23 155.1 246.28 155.12 246.34C155.65 248.92 158.31 251.07 160.76 250.96C163.51 250.83 165.46 249.05 166.4 246.34C169.07 238.68 171.73 231.03 174.4 223.37C177.49 214.48 180.59 205.6 183.68 196.71C184.65 198.84 186.7 200.27 188.95 200.3C196.11 200.4 203.27 200.51 210.43 200.61C211.46 200.63 212.5 200.64 213.53 200.66C216.25 200.7 218.31 198.65 219.17 196.04C220.35 192.48 221.53 188.91 222.71 185.35C223.12 187.1 223.52 188.84 223.93 190.59C227.05 203.98 230.17 217.37 233.29 230.76C234 233.81 234.71 236.87 235.42 239.92C236.02 242.49 238.56 244.66 241.06 244.54C243.77 244.41 245.8 242.64 246.7 239.92C250.73 227.71 254.75 215.51 258.78 203.3C258.84 203.13 258.89 202.97 258.95 202.8H306.3C309.36 202.8 312.29 199.91 312.15 196.51C312.01 193.1 309.58 190.22 306.3 190.22L306.32 190.2Z" fill="#ED1C24"/>
<path fill-rule="evenodd" clip-rule="evenodd" d="M256.27 479.311C269.62 483.241 280.27 488.191 287.67 493.761C296.09 500.091 300.61 507.391 300.61 515.191C300.61 528.911 286.48 540.711 263.64 548.701C242.7 556.021 213.94 560.551 182.3 560.551C150.66 560.551 121.9 556.021 100.96 548.701C78.1202 540.711 63.9902 528.911 63.9902 515.191C63.9902 507.001 68.9702 499.381 78.1902 492.841C86.3302 487.071 97.9902 482.011 112.52 478.121L115.67 489.921C102.47 493.451 92.1302 497.871 85.2102 502.771C79.3702 506.911 76.2202 511.151 76.2202 515.181C76.2202 523.141 87.2102 530.961 104.97 537.171C124.64 544.051 151.97 548.311 182.29 548.311C212.61 548.311 239.95 544.051 259.61 537.171C277.37 530.961 288.36 523.131 288.36 515.181C288.36 511.411 285.56 507.421 280.35 503.501C274.11 498.811 264.79 494.541 252.82 491.011L256.26 479.301L256.27 479.311Z" fill="#065DAD"/>
<path d="M426.832 295V85.5735H466.922L556.078 233.369H534.836L622.496 85.5735H662.287L662.886 295H617.41L617.111 155.283H625.488L555.48 272.861H533.64L462.135 155.283H472.307V295H426.832ZM757.151 169.942H857.975V207.639H757.151V169.942ZM760.741 256.107H874.729V295H712.573V85.5735H870.839V124.467H760.741V256.107ZM913.293 295V85.5735H1008.43C1031.17 85.5735 1051.22 89.9615 1068.57 98.7375C1085.92 107.314 1099.48 119.381 1109.26 134.938C1119.03 150.496 1123.92 168.945 1123.92 190.287C1123.92 211.429 1119.03 229.878 1109.26 245.635C1099.48 261.193 1085.92 273.359 1068.57 282.135C1051.22 290.712 1031.17 295 1008.43 295H913.293ZM961.76 255.209H1006.04C1020 255.209 1032.07 252.616 1042.24 247.43C1052.61 242.045 1060.59 234.466 1066.17 224.693C1071.96 214.919 1074.85 203.451 1074.85 190.287C1074.85 176.923 1071.96 165.455 1066.17 155.881C1060.59 146.108 1052.61 138.628 1042.24 133.442C1032.07 128.057 1020 125.365 1006.04 125.365H961.76V255.209Z" fill="#ED1C24"/>
<path d="M1160.98 295V81.255H1253.5C1272.64 81.255 1289.12 84.4103 1302.97 90.7208C1316.81 96.8278 1327.5 105.683 1335.03 117.286C1342.56 128.89 1346.33 142.732 1346.33 158.814C1346.33 174.692 1342.56 188.433 1335.03 200.036C1327.5 211.436 1316.81 220.189 1302.97 226.296C1289.12 232.403 1272.64 235.457 1253.5 235.457H1188.46L1210.45 213.777V295H1160.98ZM1296.86 295L1243.42 217.441H1296.25L1350.3 295H1296.86ZM1210.45 219.273L1188.46 196.067H1250.75C1266.02 196.067 1277.42 192.81 1284.95 186.295C1292.48 179.578 1296.25 170.417 1296.25 158.814C1296.25 147.007 1292.48 137.847 1284.95 131.332C1277.42 124.818 1266.02 121.561 1250.75 121.561H1188.46L1210.45 98.0492V219.273ZM1357.43 295L1452.7 81.255H1501.55L1597.13 295H1545.22L1467.05 106.294H1486.59L1408.11 295H1357.43ZM1405.06 249.197L1418.19 211.639H1528.12L1541.55 249.197H1405.06ZM1659.31 295V207.67L1670.61 237.594L1576.56 81.255H1629.08L1701.15 201.258H1670.92L1743.28 81.255H1791.84L1697.79 237.594L1708.78 207.67V295H1659.31ZM1810.74 295V81.255H1907.84C1931.05 81.255 1951.51 85.7335 1969.22 94.6904C1986.93 103.444 2000.77 115.76 2010.75 131.638C2020.72 147.516 2025.71 166.346 2025.71 188.127C2025.71 209.706 2020.72 228.535 2010.75 244.617C2000.77 260.495 1986.93 272.913 1969.22 281.87C1951.51 290.623 1931.05 295 1907.84 295H1810.74ZM1860.21 254.388H1905.4C1919.65 254.388 1931.97 251.742 1942.35 246.449C1952.93 240.953 1961.08 233.218 1966.78 223.243C1972.68 213.268 1975.63 201.563 1975.63 188.127C1975.63 174.489 1972.68 162.783 1966.78 153.012C1961.08 143.037 1952.93 135.404 1942.35 130.111C1931.97 124.615 1919.65 121.867 1905.4 121.867H1860.21V254.388ZM2108.51 167.364H2211.41V205.838H2108.51V167.364ZM2112.18 255.304H2228.51V295H2063.01V81.255H2224.54V120.95H2112.18V255.304ZM2267.87 295V81.255H2360.39C2379.53 81.255 2396.02 84.4103 2409.86 90.7208C2423.7 96.8278 2434.39 105.683 2441.92 117.286C2449.45 128.89 2453.22 142.732 2453.22 158.814C2453.22 174.692 2449.45 188.433 2441.92 200.036C2434.39 211.436 2423.7 220.189 2409.86 226.296C2396.02 232.403 2379.53 235.457 2360.39 235.457H2295.35L2317.34 213.777V295H2267.87ZM2403.75 295L2350.32 217.441H2403.14L2457.19 295H2403.75ZM2317.34 219.273L2295.35 196.067H2357.65C2372.91 196.067 2384.31 192.81 2391.85 186.295C2399.38 179.578 2403.14 170.417 2403.14 158.814C2403.14 147.007 2399.38 137.847 2391.85 131.332C2384.31 124.818 2372.91 121.561 2357.65 121.561H2295.35L2317.34 98.0492V219.273Z" fill="#065DAD"/>
<path d="M426.665 531.277V517.197L471.658 474.47C475.434 470.909 478.239 467.78 480.074 465.083C481.908 462.385 483.095 459.903 483.634 457.638C484.282 455.264 484.605 453.052 484.605 451.002C484.605 445.823 482.825 441.831 479.264 439.025C475.704 436.112 470.471 434.656 463.565 434.656C458.063 434.656 453.045 435.627 448.514 437.569C444.09 439.511 440.26 442.478 437.023 446.47L422.295 435.141C426.719 429.207 432.653 424.621 440.098 421.384C447.651 418.039 456.067 416.367 465.346 416.367C473.546 416.367 480.667 417.716 486.709 420.413C492.859 423.003 497.553 426.725 500.79 431.581C504.135 436.436 505.807 442.208 505.807 448.898C505.807 452.566 505.322 456.235 504.35 459.903C503.379 463.464 501.545 467.24 498.848 471.233C496.15 475.225 492.212 479.703 487.033 484.666L448.352 521.405L443.982 513.474H510.177V531.277H426.665ZM520.786 505.149V490.359L577.48 416.247H600.322L544.45 490.359L533.768 487.073H624.971V505.149H520.786ZM583.889 531.277V505.149L584.546 487.073V463.902H604.594V531.277H583.889ZM834.849 531.277L882.34 424.792L887.927 434.323H822.689L832.877 423.97V453.878H812.993V416.247H902.388V430.544L857.691 531.277H834.849ZM1050.08 416.247H1071.44V531.277H1050.08V416.247ZM990.594 531.277H969.232V416.247H990.594V531.277ZM1051.72 481.979H988.787V463.738H1051.72V481.979ZM1141.54 532.428C1131.79 532.428 1123.25 530.51 1115.91 526.676C1108.68 522.732 1103.03 517.364 1098.98 510.572C1095.04 503.78 1093.07 496.056 1093.07 487.401C1093.07 478.637 1094.98 470.914 1098.82 464.231C1102.76 457.439 1108.13 452.125 1114.92 448.291C1121.82 444.457 1129.66 442.54 1138.42 442.54C1146.97 442.54 1154.58 444.402 1161.26 448.127C1167.94 451.852 1173.2 457.11 1177.04 463.902C1180.87 470.695 1182.79 478.692 1182.79 487.894C1182.79 488.771 1182.73 489.757 1182.62 490.852C1182.62 491.948 1182.57 492.989 1182.46 493.975H1109.33V480.335H1171.61L1163.56 484.608C1163.67 479.568 1162.63 475.132 1160.44 471.297C1158.25 467.463 1155.24 464.45 1151.4 462.259C1147.68 460.068 1143.35 458.973 1138.42 458.973C1133.38 458.973 1128.94 460.068 1125.11 462.259C1121.38 464.45 1118.43 467.518 1116.24 471.462C1114.15 475.296 1113.11 479.842 1113.11 485.101V488.387C1113.11 493.646 1114.32 498.302 1116.73 502.355C1119.14 506.409 1122.53 509.531 1126.92 511.722C1131.3 513.913 1136.34 515.009 1142.04 515.009C1146.97 515.009 1151.4 514.242 1155.35 512.708C1159.29 511.174 1162.8 508.764 1165.86 505.478L1176.87 518.131C1172.93 522.732 1167.94 526.293 1161.92 528.812C1156 531.223 1149.21 532.428 1141.54 532.428ZM1254.18 531.277V513.53L1253.03 509.75V478.692C1253.03 472.667 1251.22 468.011 1247.6 464.724C1243.99 461.328 1238.51 459.63 1231.17 459.63C1226.24 459.63 1221.37 460.397 1216.55 461.93C1211.84 463.464 1207.84 465.6 1204.55 468.339L1196.5 453.385C1201.21 449.77 1206.8 447.086 1213.26 445.333C1219.83 443.471 1226.62 442.54 1233.64 442.54C1246.34 442.54 1256.15 445.607 1263.05 451.742C1270.06 457.767 1273.57 467.134 1273.57 479.842V531.277H1254.18ZM1226.57 532.428C1220 532.428 1214.25 531.332 1209.32 529.141C1204.39 526.84 1200.55 523.718 1197.81 519.774C1195.18 515.721 1193.87 511.174 1193.87 506.135C1193.87 501.205 1195.02 496.768 1197.32 492.824C1199.73 488.88 1203.62 485.758 1208.99 483.458C1214.35 481.157 1221.48 480.007 1230.35 480.007H1255.82V493.646H1231.83C1224.82 493.646 1220.11 494.796 1217.7 497.097C1215.29 499.288 1214.08 502.027 1214.08 505.313C1214.08 509.038 1215.56 511.996 1218.52 514.187C1221.48 516.378 1225.58 517.474 1230.84 517.474C1235.88 517.474 1240.37 516.323 1244.32 514.023C1248.37 511.722 1251.27 508.326 1253.03 503.834L1256.48 516.159C1254.51 521.308 1250.95 525.307 1245.8 528.155C1240.76 531.003 1234.35 532.428 1226.57 532.428ZM1299.93 531.277V409.345H1320.47V531.277H1299.93ZM1384.79 532.428C1375.15 532.428 1367.7 529.963 1362.45 525.033C1357.19 519.993 1354.56 512.599 1354.56 502.848V424.135H1375.1V502.355C1375.1 506.518 1376.14 509.75 1378.22 512.051C1380.41 514.351 1383.43 515.502 1387.26 515.502C1391.86 515.502 1395.69 514.297 1398.76 511.886L1404.51 526.512C1402.1 528.484 1399.15 529.963 1395.64 530.949C1392.13 531.935 1388.52 532.428 1384.79 532.428ZM1340.1 460.616V444.183H1398.6V460.616H1340.1ZM1471.2 442.54C1478.21 442.54 1484.46 443.909 1489.94 446.648C1495.52 449.387 1499.91 453.604 1503.08 459.301C1506.26 464.888 1507.85 472.119 1507.85 480.993V531.277H1487.31V483.622C1487.31 475.844 1485.45 470.037 1481.72 466.203C1478.11 462.369 1473.01 460.451 1466.44 460.451C1461.62 460.451 1457.34 461.437 1453.62 463.409C1449.9 465.381 1446.99 468.339 1444.91 472.283C1442.94 476.118 1441.95 480.993 1441.95 486.908V531.277H1421.41V409.345H1441.95V467.189L1437.52 459.958C1440.58 454.371 1445.02 450.099 1450.83 447.141C1456.74 444.073 1463.53 442.54 1471.2 442.54ZM1565.03 531.277L1616.79 416.247H1637.82L1689.75 531.277H1667.4L1622.87 427.586H1631.41L1587.05 531.277H1565.03ZM1588.85 504.656L1594.6 487.894H1656.72L1662.47 504.656H1588.85ZM1728.72 532.428C1721.38 532.428 1714.31 531.496 1707.52 529.634C1700.84 527.662 1695.53 525.307 1691.58 522.568L1699.47 506.957C1703.41 509.476 1708.12 511.558 1713.6 513.201C1719.08 514.844 1724.56 515.666 1730.03 515.666C1736.5 515.666 1741.15 514.79 1744 513.037C1746.96 511.284 1748.44 508.929 1748.44 505.971C1748.44 503.56 1747.45 501.753 1745.48 500.548C1743.51 499.233 1740.94 498.247 1737.76 497.59C1734.58 496.933 1731.02 496.33 1727.08 495.782C1723.24 495.234 1719.35 494.522 1715.41 493.646C1711.58 492.66 1708.07 491.291 1704.89 489.538C1701.72 487.675 1699.14 485.21 1697.17 482.143C1695.2 479.075 1694.21 475.022 1694.21 469.983C1694.21 464.395 1695.8 459.575 1698.98 455.522C1702.15 451.359 1706.59 448.182 1712.29 445.99C1718.09 443.69 1724.94 442.54 1732.83 442.54C1738.74 442.54 1744.71 443.197 1750.74 444.512C1756.77 445.826 1761.75 447.689 1765.69 450.099L1757.81 465.71C1753.64 463.19 1749.43 461.492 1745.15 460.616C1740.99 459.63 1736.83 459.137 1732.66 459.137C1726.42 459.137 1721.76 460.068 1718.7 461.93C1715.74 463.793 1714.26 466.148 1714.26 468.997C1714.26 471.626 1715.25 473.598 1717.22 474.912C1719.19 476.227 1721.76 477.268 1724.94 478.035C1728.12 478.802 1731.62 479.459 1735.46 480.007C1739.4 480.445 1743.29 481.157 1747.12 482.143C1750.96 483.129 1754.46 484.498 1757.64 486.251C1760.93 487.894 1763.56 490.25 1765.53 493.317C1767.5 496.385 1768.49 500.383 1768.49 505.313C1768.49 510.791 1766.84 515.557 1763.56 519.61C1760.38 523.663 1755.83 526.84 1749.92 529.141C1744 531.332 1736.94 532.428 1728.72 532.428ZM1813.29 532.428C1805.95 532.428 1798.89 531.496 1792.09 529.634C1785.41 527.662 1780.1 525.307 1776.15 522.568L1784.04 506.957C1787.99 509.476 1792.7 511.558 1798.17 513.201C1803.65 514.844 1809.13 515.666 1814.61 515.666C1821.07 515.666 1825.73 514.79 1828.57 513.037C1831.53 511.284 1833.01 508.929 1833.01 505.971C1833.01 503.56 1832.03 501.753 1830.05 500.548C1828.08 499.233 1825.51 498.247 1822.33 497.59C1819.15 496.933 1815.59 496.33 1811.65 495.782C1807.81 495.234 1803.93 494.522 1799.98 493.646C1796.15 492.66 1792.64 491.291 1789.46 489.538C1786.29 487.675 1783.71 485.21 1781.74 482.143C1779.77 479.075 1778.78 475.022 1778.78 469.983C1778.78 464.395 1780.37 459.575 1783.55 455.522C1786.73 451.359 1791.16 448.182 1796.86 445.99C1802.67 443.69 1809.51 442.54 1817.4 442.54C1823.32 442.54 1829.29 443.197 1835.31 444.512C1841.34 445.826 1846.32 447.689 1850.27 450.099L1842.38 465.71C1838.22 463.19 1834 461.492 1829.72 460.616C1825.56 459.63 1821.4 459.137 1817.24 459.137C1810.99 459.137 1806.34 460.068 1803.27 461.93C1800.31 463.793 1798.83 466.148 1798.83 468.997C1798.83 471.626 1799.82 473.598 1801.79 474.912C1803.76 476.227 1806.34 477.268 1809.51 478.035C1812.69 478.802 1816.19 479.459 1820.03 480.007C1823.97 480.445 1827.86 481.157 1831.7 482.143C1835.53 483.129 1839.04 484.498 1842.21 486.251C1845.5 487.894 1848.13 490.25 1850.1 493.317C1852.07 496.385 1853.06 500.383 1853.06 505.313C1853.06 510.791 1851.42 515.557 1848.13 519.61C1844.95 523.663 1840.41 526.84 1834.49 529.141C1828.57 531.332 1821.51 532.428 1813.29 532.428ZM1870.75 531.277V443.526H1891.29V531.277H1870.75ZM1881.1 429.065C1877.27 429.065 1874.09 427.86 1871.57 425.449C1869.16 423.039 1867.96 420.136 1867.96 416.74C1867.96 413.234 1869.16 410.331 1871.57 408.03C1874.09 405.62 1877.27 404.415 1881.1 404.415C1884.94 404.415 1888.06 405.566 1890.47 407.866C1892.99 410.057 1894.25 412.851 1894.25 416.247C1894.25 419.862 1893.04 422.93 1890.63 425.449C1888.22 427.86 1885.05 429.065 1881.1 429.065ZM1945.36 532.428C1938.02 532.428 1930.96 531.496 1924.17 529.634C1917.48 527.662 1912.17 525.307 1908.23 522.568L1916.11 506.957C1920.06 509.476 1924.77 511.558 1930.25 513.201C1935.72 514.844 1941.2 515.666 1946.68 515.666C1953.14 515.666 1957.8 514.79 1960.65 513.037C1963.61 511.284 1965.08 508.929 1965.08 505.971C1965.08 503.56 1964.1 501.753 1962.13 500.548C1960.15 499.233 1957.58 498.247 1954.4 497.59C1951.23 496.933 1947.67 496.33 1943.72 495.782C1939.89 495.234 1936 494.522 1932.05 493.646C1928.22 492.66 1924.71 491.291 1921.54 489.538C1918.36 487.675 1915.79 485.21 1913.81 482.143C1911.84 479.075 1910.86 475.022 1910.86 469.983C1910.86 464.395 1912.44 459.575 1915.62 455.522C1918.8 451.359 1923.24 448.182 1928.93 445.99C1934.74 443.69 1941.59 442.54 1949.47 442.54C1955.39 442.54 1961.36 443.197 1967.39 444.512C1973.41 445.826 1978.4 447.689 1982.34 450.099L1974.45 465.71C1970.29 463.19 1966.07 461.492 1961.8 460.616C1957.63 459.63 1953.47 459.137 1949.31 459.137C1943.06 459.137 1938.41 460.068 1935.34 461.93C1932.38 463.793 1930.9 466.148 1930.9 468.997C1930.9 471.626 1931.89 473.598 1933.86 474.912C1935.83 476.227 1938.41 477.268 1941.59 478.035C1944.76 478.802 1948.27 479.459 1952.1 480.007C1956.05 480.445 1959.94 481.157 1963.77 482.143C1967.6 483.129 1971.11 484.498 1974.29 486.251C1977.57 487.894 1980.2 490.25 1982.17 493.317C1984.15 496.385 1985.13 500.383 1985.13 505.313C1985.13 510.791 1983.49 515.557 1980.2 519.61C1977.03 523.663 1972.48 526.84 1966.56 529.141C1960.65 531.332 1953.58 532.428 1945.36 532.428ZM2035.85 532.428C2026.21 532.428 2018.76 529.963 2013.5 525.033C2008.25 519.993 2005.62 512.599 2005.62 502.848V424.135H2026.16V502.355C2026.16 506.518 2027.2 509.75 2029.28 512.051C2031.47 514.351 2034.48 515.502 2038.32 515.502C2042.92 515.502 2046.75 514.297 2049.82 511.886L2055.57 526.512C2053.16 528.484 2050.2 529.963 2046.7 530.949C2043.19 531.935 2039.58 532.428 2035.85 532.428ZM1991.16 460.616V444.183H2049.66V460.616H1991.16ZM2126.53 531.277V513.53L2125.38 509.75V478.692C2125.38 472.667 2123.58 468.011 2119.96 464.724C2116.35 461.328 2110.87 459.63 2103.53 459.63C2098.6 459.63 2093.72 460.397 2088.9 461.93C2084.19 463.464 2080.19 465.6 2076.91 468.339L2068.85 453.385C2073.57 449.77 2079.15 447.086 2085.62 445.333C2092.19 443.471 2098.98 442.54 2105.99 442.54C2118.7 442.54 2128.51 445.607 2135.41 451.742C2142.42 457.767 2145.92 467.134 2145.92 479.842V531.277H2126.53ZM2098.93 532.428C2092.35 532.428 2086.6 531.332 2081.67 529.141C2076.74 526.84 2072.91 523.718 2070.17 519.774C2067.54 515.721 2066.23 511.174 2066.23 506.135C2066.23 501.205 2067.38 496.768 2069.68 492.824C2072.09 488.88 2075.98 485.758 2081.34 483.458C2086.71 481.157 2093.83 480.007 2102.71 480.007H2128.18V493.646H2104.19C2097.17 493.646 2092.46 494.796 2090.05 497.097C2087.64 499.288 2086.44 502.027 2086.44 505.313C2086.44 509.038 2087.92 511.996 2090.87 514.187C2093.83 516.378 2097.94 517.474 2103.2 517.474C2108.24 517.474 2112.73 516.323 2116.67 514.023C2120.73 511.722 2123.63 508.326 2125.38 503.834L2128.83 516.159C2126.86 521.308 2123.3 525.307 2118.15 528.155C2113.11 531.003 2106.7 532.428 2098.93 532.428ZM2222.08 442.54C2229.09 442.54 2235.33 443.909 2240.81 446.648C2246.4 449.387 2250.78 453.604 2253.96 459.301C2257.14 464.888 2258.72 472.119 2258.72 480.993V531.277H2238.18V483.622C2238.18 475.844 2236.32 470.037 2232.6 466.203C2228.98 462.369 2223.89 460.451 2217.31 460.451C2212.49 460.451 2208.22 461.437 2204.5 463.409C2200.77 465.381 2197.87 468.339 2195.79 472.283C2193.81 476.118 2192.83 480.993 2192.83 486.908V531.277H2172.29V443.526H2191.84V467.189L2188.39 459.958C2191.46 454.371 2195.9 450.099 2201.7 447.141C2207.62 444.073 2214.41 442.54 2222.08 442.54ZM2325.2 532.428C2316 532.428 2307.78 530.51 2300.55 526.676C2293.43 522.732 2287.85 517.364 2283.79 510.572C2279.74 503.78 2277.71 496.056 2277.71 487.401C2277.71 478.637 2279.74 470.914 2283.79 464.231C2287.85 457.439 2293.43 452.125 2300.55 448.291C2307.78 444.457 2316 442.54 2325.2 442.54C2333.75 442.54 2341.25 444.292 2347.72 447.798C2354.29 451.194 2359.27 456.234 2362.67 462.916L2346.89 472.119C2344.26 467.956 2341.03 464.888 2337.2 462.916C2333.47 460.944 2329.42 459.958 2325.04 459.958C2320 459.958 2315.45 461.054 2311.4 463.245C2307.35 465.436 2304.17 468.613 2301.87 472.776C2299.57 476.83 2298.42 481.705 2298.42 487.401C2298.42 493.098 2299.57 498.028 2301.87 502.191C2304.17 506.245 2307.35 509.367 2311.4 511.558C2315.45 513.749 2320 514.844 2325.04 514.844C2329.42 514.844 2333.47 513.858 2337.2 511.886C2341.03 509.915 2344.26 506.847 2346.89 502.684L2362.67 511.886C2359.27 518.46 2354.29 523.554 2347.72 527.169C2341.25 530.675 2333.75 532.428 2325.2 532.428ZM2420.39 532.428C2410.64 532.428 2402.09 530.51 2394.75 526.676C2387.52 522.732 2381.88 517.364 2377.83 510.572C2373.88 503.78 2371.91 496.056 2371.91 487.401C2371.91 478.637 2373.83 470.914 2377.66 464.231C2381.61 457.439 2386.98 452.125 2393.77 448.291C2400.67 444.457 2408.5 442.54 2417.27 442.54C2425.81 442.54 2433.43 444.402 2440.11 448.127C2446.79 451.852 2452.05 457.11 2455.88 463.902C2459.72 470.695 2461.64 478.692 2461.64 487.894C2461.64 488.771 2461.58 489.757 2461.47 490.852C2461.47 491.948 2461.42 492.989 2461.31 493.975H2388.18V480.335H2450.46L2442.41 484.608C2442.52 479.568 2441.48 475.132 2439.29 471.297C2437.1 467.463 2434.08 464.45 2430.25 462.259C2426.52 460.068 2422.2 458.973 2417.27 458.973C2412.23 458.973 2407.79 460.068 2403.96 462.259C2400.23 464.45 2397.27 467.518 2395.08 471.462C2393 475.296 2391.96 479.842 2391.96 485.101V488.387C2391.96 493.646 2393.17 498.302 2395.58 502.355C2397.99 506.409 2401.38 509.531 2405.76 511.722C2410.15 513.913 2415.19 515.009 2420.88 515.009C2425.81 515.009 2430.25 514.242 2434.19 512.708C2438.14 511.174 2441.64 508.764 2444.71 505.478L2455.72 518.131C2451.78 522.732 2446.79 526.293 2440.77 528.812C2434.85 531.223 2428.06 532.428 2420.39 532.428Z" fill="#065DAD"/>
<path d="M760.786 425.686H735.232L715.083 454.134L695.223 425.686H693.781H692.326H687.987H668.703L701.968 472.648L668.703 519.61H687.987H692.326H693.781H695.223L715.083 491.148L735.232 519.61H760.786L728.011 472.648L760.786 425.686Z" fill="#065DAD"/>
</svg>
