<svg id="Layer_1" enable-background="new 0 0 100 100" viewBox="0 0 100 100" xmlns="http://www.w3.org/2000/svg"><path d="m88.8590393 53.4983406v13.7934608c0 16.6920776-13.4935989 30.1856766-30.1856842 30.1856766s-30.285635-13.4935989-30.285635-30.1856766v-4.697773c-14.792983-2.0990066-25.8877206-14.8929366-25.8877206-29.885826v-25.8877197c0-2.3988624 1.8990993-4.2979612 4.2979617-4.2979612h12.9938364c2.3988609 0 4.2979603 1.8990993 4.2979603 4.2979612s-1.8990993 4.2979608-4.2979603 4.2979608h-8.5959244v21.5897598c0 11.8943558 9.6954002 21.5897636 21.5897598 21.5897636s21.5897636-9.6954041 21.5897636-21.5897598v-21.5897636h-8.5959206c-2.3988647 0-4.2979622-1.8990984-4.2979622-4.2979608s1.8991013-4.2979612 4.2979622-4.2979612h12.9938354c2.1989517 0 4.1980057 1.8990993 4.1980057 4.2979612v25.8877201c0 14.9928894-11.094738 27.6868668-25.887722 29.8858223v4.6977692c0 11.8943558 9.6954002 21.5897598 21.589756 21.5897598s21.589756-9.6954041 21.589756-21.5897598v-13.7934537c-6.6968155-2.3988647-10.2951202-9.7953529-7.8962555-16.4921761s9.795357-10.2951145 16.4921801-7.8962535 10.2951202 9.7953548 7.8962555 16.4921741c-1.2993775 3.698246-4.2979584 6.5968743-7.8962479 7.8962555z" fill="rgb(0,0,0)"/></svg>